<?xml version="1.0" standalone="no"?>
<!DOCTYPE svg PUBLIC "-//W3C//DTD SVG 20010904//EN"
 "http://www.w3.org/TR/2001/REC-SVG-20010904/DTD/svg10.dtd">
<svg version="1.0" xmlns="http://www.w3.org/2000/svg"
 width="900.000000pt" height="1392.000000pt" viewBox="0 0 900.000000 1392.000000"
 preserveAspectRatio="xMidYMid meet">
<metadata>
Created by potrace 1.10, written by Peter Selinger 2001-2011
</metadata>
<g transform="translate(0.000000,1392.000000) scale(0.100000,-0.100000)"
fill="#ffffff" stroke="none">
<path d="M1163 11658 c3 -24 13 -57 21 -73 9 -17 16 -38 16 -47 0 -9 4 -19 9
-23 5 -3 12 -19 16 -36 4 -17 13 -42 21 -57 8 -15 14 -35 14 -44 0 -10 5 -18
10 -18 6 0 10 -5 10 -11 0 -6 6 -25 14 -42 41 -90 56 -127 56 -136 0 -5 3 -11
8 -13 4 -1 18 -25 32 -53 26 -51 138 -242 152 -260 5 -5 33 -44 64 -85 154
-209 364 -410 574 -550 12 -8 28 -20 34 -26 7 -6 22 -15 34 -18 12 -4 22 -11
22 -16 0 -4 8 -10 18 -14 9 -3 31 -14 47 -25 65 -42 295 -161 313 -161 6 0 12
-4 12 -10 0 -5 7 -10 16 -10 9 0 28 -6 42 -14 15 -7 50 -23 77 -35 28 -12 58
-26 67 -32 10 -5 23 -9 30 -9 7 -1 31 -9 53 -20 22 -11 48 -19 57 -20 9 0 18
-3 20 -7 2 -5 35 -19 73 -31 39 -13 84 -30 102 -38 17 -8 38 -14 46 -14 9 0
19 -4 22 -10 3 -5 14 -10 23 -10 9 0 29 -6 44 -14 15 -8 40 -17 57 -21 17 -4
33 -11 36 -16 4 -5 16 -9 28 -9 12 -1 40 -9 62 -20 22 -11 48 -19 57 -20 9 0
19 -4 23 -9 3 -5 19 -12 36 -16 17 -4 42 -13 57 -21 43 -22 75 -17 95 14 24
34 64 65 71 54 3 -5 -15 -33 -39 -61 -25 -29 -45 -59 -45 -67 0 -8 -4 -14 -9
-14 -9 0 -85 -84 -183 -201 -20 -24 -52 -62 -71 -84 -31 -36 -156 -184 -262
-309 -21 -26 -48 -58 -60 -70 -11 -13 -45 -54 -75 -91 -30 -37 -62 -75 -71
-84 -27 -28 -139 -179 -139 -189 0 -5 -11 -29 -24 -53 -14 -24 -35 -63 -47
-86 -38 -72 -82 -113 -121 -113 -30 0 -40 -8 -103 -91 -39 -49 -84 -110 -102
-135 -18 -25 -61 -84 -95 -132 -71 -97 -116 -161 -138 -197 -8 -13 -40 -59
-70 -102 -113 -162 -282 -419 -291 -441 -20 -52 -97 -201 -130 -252 -46 -70
-156 -189 -217 -233 -73 -54 -246 -137 -284 -137 -22 0 -22 -13 -3 -130 10
-55 60 -150 111 -208 42 -48 140 -130 174 -145 8 -4 29 -16 45 -27 17 -11 37
-23 45 -26 8 -4 38 -17 66 -30 70 -32 133 -55 169 -61 17 -3 39 -12 50 -19 11
-8 28 -14 38 -14 11 0 33 -6 50 -14 50 -21 263 -64 361 -73 58 -5 59 -5 52 19
-4 12 -11 46 -16 73 -4 28 -12 68 -18 90 -16 61 -24 300 -13 395 19 172 69
301 168 435 26 35 68 94 93 131 25 36 51 72 58 79 6 8 12 16 12 20 0 4 19 32
43 63 38 50 156 223 197 287 14 22 55 82 162 235 25 36 71 103 103 149 l58 85
-23 18 c-12 10 -28 18 -36 18 -17 0 -36 34 -29 52 7 18 133 114 205 157 52 30
180 153 180 171 0 5 -4 12 -10 15 -18 11 -10 25 14 25 42 0 76 -18 76 -40 0
-31 -165 -192 -230 -224 -96 -47 -160 -91 -160 -111 0 -8 13 -24 30 -37 25
-18 30 -29 30 -64 0 -26 -6 -46 -17 -55 -25 -21 -202 -260 -220 -297 -3 -8
-19 -28 -34 -45 -16 -17 -29 -35 -29 -40 0 -5 -20 -35 -45 -67 -25 -32 -45
-63 -45 -69 0 -6 -4 -11 -8 -11 -8 0 -85 -109 -110 -156 -7 -13 -17 -24 -23
-24 -5 0 -9 -6 -9 -13 0 -7 -13 -28 -30 -47 -16 -19 -29 -39 -30 -43 0 -5 -6
-15 -12 -22 -16 -17 -65 -89 -121 -176 -75 -117 -122 -225 -140 -324 -22 -122
-5 -555 22 -555 19 0 32 145 30 347 -2 182 0 216 15 237 9 14 16 32 16 40 0
28 136 280 207 382 26 38 79 119 119 179 40 61 86 126 102 145 16 19 38 51 48
70 11 19 39 61 64 93 25 32 52 71 60 86 9 15 34 45 55 67 22 21 45 46 50 56 6
9 31 43 58 76 26 33 47 65 47 70 0 5 7 23 15 38 8 16 15 53 15 82 0 42 6 61
26 88 15 19 32 34 38 34 6 0 31 20 55 45 24 25 48 45 53 45 16 0 137 134 138
152 0 9 5 20 10 23 6 3 10 16 10 29 0 27 34 61 53 53 27 -10 113 23 144 56 34
35 93 139 93 162 0 8 5 15 10 15 6 0 10 11 10 25 0 14 4 25 9 25 5 0 13 9 16
21 4 12 13 28 21 37 8 10 34 42 59 72 25 30 64 77 87 104 47 53 84 106 74 106
-8 0 -82 -66 -107 -95 -100 -115 -228 -289 -250 -340 -5 -11 -22 -42 -37 -69
-36 -63 -85 -84 -146 -65 -21 7 -40 19 -43 26 -8 21 -31 15 -39 -9 -11 -36
-45 -64 -86 -72 -32 -6 -38 -3 -57 23 -11 16 -22 39 -23 52 -4 32 33 37 68 10
51 -40 80 -12 39 38 -47 55 -23 86 43 56 20 -10 39 -21 42 -24 15 -17 90 -49
106 -45 11 3 29 28 43 60 14 29 28 54 32 54 4 0 11 10 15 22 3 12 11 26 16 32
5 6 27 38 48 71 22 33 51 73 65 89 14 16 25 33 25 37 0 13 269 280 310 309 43
29 45 31 95 75 22 19 45 35 50 35 6 0 25 14 44 30 18 17 39 30 47 30 7 0 14 4
16 8 3 8 291 152 331 165 9 4 17 11 17 17 0 5 14 10 30 10 18 0 33 6 36 15 3
8 21 17 40 21 19 3 37 10 40 15 3 5 18 9 35 9 23 0 29 -4 29 -23 0 -12 10 -33
23 -47 18 -20 249 -287 417 -484 14 -16 30 -34 37 -41 6 -6 35 -41 64 -76 29
-35 60 -71 68 -80 9 -9 34 -37 56 -64 78 -94 118 -140 125 -145 22 -16 31 -52
20 -84 -22 -67 -130 -60 -130 9 0 24 -56 105 -148 215 -54 64 -167 193 -188
214 -5 6 -50 56 -99 111 -48 55 -91 102 -94 105 -4 3 -49 55 -101 115 -129
150 -161 184 -181 190 -14 5 -89 -24 -108 -41 -7 -6 217 -292 282 -359 7 -7
50 -54 97 -106 133 -147 245 -265 362 -381 59 -58 108 -111 108 -117 0 -5 -8
-16 -19 -23 -10 -7 -49 -54 -85 -103 -99 -132 -100 -134 -113 -135 -15 0 -18
46 -4 55 5 3 13 29 16 59 12 90 -18 136 -184 289 -23 21 -46 48 -51 60 -33 75
-209 295 -350 437 -207 209 -251 238 -294 191 -10 -11 -46 -34 -82 -52 -35
-18 -64 -36 -64 -40 0 -12 31 -38 92 -79 61 -41 280 -268 347 -360 33 -47 65
-89 69 -95 12 -16 76 -126 98 -168 34 -68 46 -68 153 -5 66 38 95 46 106 28 7
-12 -22 -70 -35 -70 -11 0 -14 -43 -4 -53 3 -3 24 5 45 19 70 44 92 28 58 -42
-27 -52 -36 -61 -52 -45 -6 6 -20 11 -31 11 -29 0 -66 43 -66 75 0 27 -1 27
-22 11 -60 -42 -87 -49 -128 -36 -48 16 -58 27 -101 105 -18 33 -56 95 -86
138 -29 43 -53 80 -53 83 0 3 -15 20 -32 38 -18 17 -44 47 -58 66 -14 18 -43
50 -64 69 -22 20 -48 44 -58 54 -11 10 -25 16 -31 14 -7 -2 13 -29 46 -59 31
-31 57 -59 57 -62 0 -10 59 -82 103 -127 20 -20 37 -47 37 -58 0 -11 16 -46
35 -78 19 -32 35 -63 35 -69 0 -6 9 -21 20 -34 11 -13 20 -28 20 -35 0 -27 67
-72 143 -95 20 -6 37 -16 37 -22 0 -6 6 -6 15 2 20 17 45 -4 45 -38 0 -40 55
-115 143 -195 45 -41 87 -76 93 -78 5 -2 27 -23 48 -46 34 -38 37 -47 37 -101
1 -41 7 -72 21 -98 23 -44 138 -194 148 -194 4 0 21 -22 38 -50 17 -27 36 -50
42 -50 5 0 10 -7 10 -15 0 -7 6 -18 14 -22 7 -4 23 -26 34 -48 18 -36 89 -136
125 -175 7 -8 27 -37 43 -64 59 -101 95 -155 141 -212 18 -23 33 -45 33 -50 0
-6 13 -25 30 -44 16 -19 29 -42 30 -51 0 -9 6 -22 13 -28 8 -6 22 -30 32 -53
10 -24 24 -50 31 -58 6 -8 24 -44 39 -80 15 -36 32 -74 38 -85 7 -12 12 -104
13 -240 3 -204 9 -309 20 -345 10 -29 24 13 24 71 0 31 5 81 11 110 24 122 9
363 -28 464 -24 66 -85 188 -110 221 -13 17 -23 34 -23 39 0 4 -13 24 -30 45
-16 21 -30 41 -30 45 0 3 -27 42 -60 85 -33 43 -60 82 -60 85 0 4 -20 33 -45
65 -25 32 -45 61 -45 65 0 3 -26 41 -58 83 -33 42 -61 82 -63 87 -6 15 -95
140 -222 309 -121 163 -128 184 -76 227 58 47 36 72 -131 155 -63 32 -230 194
-230 223 0 19 44 41 81 41 22 0 23 -4 9 -30 -8 -15 2 -30 54 -84 34 -36 68
-66 74 -66 7 0 12 -4 12 -9 0 -5 10 -13 22 -17 12 -3 26 -11 32 -16 6 -5 48
-36 93 -69 106 -78 117 -108 51 -139 -18 -8 -33 -20 -35 -26 -3 -9 68 -127 87
-144 3 -3 32 -45 66 -95 74 -111 192 -284 265 -388 30 -43 59 -86 64 -95 6 -9
15 -22 20 -28 6 -7 30 -42 55 -78 25 -37 72 -103 106 -149 112 -152 159 -244
200 -387 26 -89 27 -467 2 -545 -9 -27 -19 -74 -22 -103 l-5 -54 62 5 c86 7
283 48 367 78 19 6 51 17 70 24 19 7 60 20 90 30 62 19 82 27 193 82 116 57
127 63 127 74 0 5 5 9 10 9 6 0 18 8 28 18 10 9 29 26 43 38 92 79 150 178
174 297 17 84 15 97 -15 97 -21 0 -62 17 -153 62 -85 42 -134 75 -190 127 -47
43 -155 178 -170 211 -4 8 -16 29 -27 45 -11 17 -23 37 -26 45 -4 8 -19 43
-35 78 -16 34 -29 64 -29 66 0 4 -244 371 -290 436 -14 19 -28 37 -32 38 -5 2
-8 8 -8 13 0 5 -19 36 -42 68 -24 33 -59 83 -78 111 -62 92 -182 253 -249 335
-46 57 -71 79 -85 77 -45 -6 -113 74 -185 221 -24 48 -48 93 -55 100 -6 7 -36
44 -66 82 -30 39 -57 72 -61 75 -3 3 -42 48 -86 100 -95 115 -116 140 -168
200 -22 25 -58 68 -80 95 -22 26 -83 98 -135 160 -52 62 -113 134 -135 160
-61 74 -87 95 -117 95 -16 0 -28 5 -28 13 0 13 88 57 114 57 8 0 18 5 21 10 3
6 14 10 23 10 9 0 30 7 46 15 15 8 33 15 40 15 6 1 29 9 51 20 22 11 50 19 62
20 12 0 24 4 28 9 3 5 19 12 36 16 17 4 42 13 57 21 15 8 35 14 44 14 9 0 19
4 22 9 3 5 21 12 40 15 20 4 48 13 63 21 15 8 36 15 45 15 9 0 19 4 23 9 3 5
20 13 37 17 18 3 39 10 48 15 31 17 109 49 120 49 5 0 18 4 28 10 9 5 40 19
67 30 28 12 66 28 85 37 52 22 284 137 290 143 3 3 16 11 30 18 14 7 34 18 45
25 11 7 43 25 70 41 28 16 52 32 55 36 3 3 23 17 45 30 22 13 49 32 59 42 11
10 37 30 60 45 114 79 330 300 446 456 50 67 94 127 99 133 5 6 12 20 15 32 4
12 11 22 15 22 4 0 18 21 31 48 13 26 26 49 29 52 3 3 27 48 53 100 42 87 62
129 104 230 8 19 19 42 23 50 5 9 12 30 15 48 4 17 12 34 17 37 5 4 9 14 9 24
0 10 9 38 19 62 10 24 22 59 26 78 7 33 7 34 -21 27 -16 -4 -36 -14 -45 -22
-8 -8 -19 -14 -24 -14 -4 0 -29 -10 -54 -21 -25 -12 -62 -29 -81 -37 -19 -8
-43 -19 -53 -24 -10 -5 -66 -24 -125 -44 -59 -19 -111 -39 -116 -44 -6 -6 -18
-10 -27 -10 -10 0 -30 -6 -46 -14 -37 -18 -88 -40 -143 -61 -25 -9 -52 -21
-60 -26 -8 -5 -22 -12 -30 -15 -8 -3 -22 -10 -30 -15 -8 -5 -19 -11 -25 -13
-5 -1 -26 -9 -45 -15 -19 -7 -49 -16 -66 -20 -17 -5 -68 -27 -114 -50 -45 -22
-88 -41 -95 -41 -8 0 -26 -6 -42 -14 -15 -8 -46 -22 -68 -32 -22 -9 -47 -21
-55 -25 -29 -15 -106 -51 -202 -93 -18 -8 -64 -29 -103 -46 -38 -17 -83 -37
-100 -45 -28 -12 -66 -29 -230 -105 -36 -16 -93 -43 -127 -59 -128 -58 -506
-238 -528 -251 -8 -5 -91 -47 -185 -94 -93 -48 -210 -109 -260 -136 -49 -27
-103 -56 -120 -64 -16 -8 -50 -27 -75 -41 -49 -28 -80 -32 -80 -12 0 8 -10 19
-22 25 -13 6 -63 34 -113 62 -49 27 -153 82 -230 121 -77 39 -147 75 -155 80
-8 5 -35 18 -60 29 -25 12 -52 25 -60 30 -28 16 -387 188 -565 270 -38 18
-104 48 -145 67 -73 33 -105 48 -172 77 -18 8 -64 29 -103 46 -38 18 -83 38
-100 45 -54 23 -170 77 -185 86 -8 5 -26 14 -40 19 -45 19 -75 32 -103 46 -16
8 -33 14 -39 14 -6 0 -53 20 -105 45 -51 25 -100 45 -108 45 -14 0 -31 7 -150
60 -118 53 -136 60 -149 60 -8 0 -19 7 -26 15 -7 8 -22 15 -34 15 -12 0 -31 7
-42 15 -10 8 -28 15 -40 15 -11 0 -24 4 -30 9 -5 6 -52 24 -104 41 -52 18
-115 41 -140 52 -25 10 -54 23 -65 27 -11 5 -41 18 -66 30 -25 11 -50 21 -54
21 -5 0 -16 6 -24 14 -9 7 -27 17 -40 21 -23 7 -24 6 -18 -37z m226 -134 c31
-14 63 -29 71 -33 11 -6 15 -28 16 -82 2 -108 74 -318 149 -434 18 -27 36 -61
40 -75 4 -14 22 -41 39 -62 17 -20 47 -58 66 -84 73 -99 182 -211 283 -293 62
-50 87 -84 73 -98 -8 -8 -71 42 -126 98 -25 26 -57 54 -72 64 -16 9 -28 22
-28 28 0 6 -40 50 -90 99 -49 48 -90 94 -90 103 0 9 -16 29 -35 46 -19 17 -35
36 -35 42 0 6 -11 23 -25 37 -25 26 -81 118 -151 248 -18 35 -41 70 -49 78 -8
9 -15 23 -15 32 0 10 -11 39 -25 65 -14 26 -39 86 -56 133 -24 67 -28 89 -18
100 15 18 12 18 78 -12z m6295 7 c3 -4 -4 -25 -14 -47 -11 -21 -20 -45 -20
-53 0 -14 -10 -38 -70 -166 -16 -33 -31 -67 -35 -75 -3 -8 -16 -33 -30 -55
-13 -22 -34 -58 -46 -80 -12 -22 -32 -53 -45 -68 -13 -16 -24 -36 -24 -44 0
-9 -16 -33 -35 -54 -19 -22 -35 -46 -35 -54 0 -8 -13 -27 -29 -41 -16 -14 -34
-38 -41 -54 -6 -15 -31 -42 -56 -60 -24 -19 -63 -58 -86 -87 -24 -29 -48 -53
-54 -53 -6 0 -17 -13 -24 -30 -7 -18 -20 -30 -30 -30 -10 0 -32 -13 -48 -30
-34 -34 -42 -37 -42 -16 0 8 21 34 46 58 156 146 222 220 291 327 31 47 64 98
73 112 24 34 100 184 100 195 0 5 16 47 35 92 26 61 36 104 41 165 6 69 11 86
32 110 14 15 35 27 46 27 12 0 28 5 36 10 19 12 57 13 64 1z m-6043 -106 c24
-14 51 -27 59 -31 18 -6 65 -27 118 -50 20 -9 51 -22 67 -29 28 -12 53 -23
142 -62 49 -21 101 -43 138 -59 17 -7 62 -27 100 -44 39 -17 85 -38 103 -46
17 -8 47 -20 65 -28 17 -8 64 -29 102 -46 39 -18 84 -38 100 -45 51 -23 289
-132 485 -223 36 -16 72 -33 80 -36 8 -3 22 -10 30 -15 15 -9 190 -93 220
-105 8 -3 22 -10 30 -15 8 -5 170 -86 360 -181 190 -94 352 -175 360 -180 8
-5 22 -11 30 -14 8 -3 22 -10 30 -15 8 -5 33 -17 55 -26 67 -30 70 -32 73 -48
2 -11 -14 -25 -50 -43 -60 -30 -284 -246 -358 -344 -53 -71 -72 -80 -111 -51
-15 12 -35 21 -43 21 -9 0 -30 6 -48 14 -32 13 -76 31 -163 63 -22 9 -58 22
-80 30 -22 9 -58 22 -80 30 -22 8 -53 21 -68 29 -16 8 -35 14 -42 14 -7 0 -26
6 -42 14 -15 8 -48 22 -73 31 -25 10 -60 24 -77 32 -18 7 -47 20 -65 28 -93
39 -404 189 -448 215 -157 94 -196 118 -218 132 -15 10 -34 21 -42 25 -8 4
-19 11 -25 15 -5 4 -50 39 -100 76 -116 87 -131 100 -234 204 -120 120 -213
230 -234 278 -4 8 -16 29 -27 45 -11 17 -24 39 -30 50 -9 19 -14 27 -40 73 -6
9 -13 24 -16 32 -5 15 -16 40 -48 113 -9 21 -16 42 -16 48 0 6 -8 29 -19 52
-10 23 -21 54 -25 70 -8 35 14 36 75 2z m5789 10 c0 -8 -4 -15 -10 -15 -5 0
-10 -8 -10 -17 -1 -10 -9 -36 -20 -58 -11 -22 -19 -45 -20 -52 0 -26 -82 -198
-139 -293 -114 -191 -289 -380 -499 -538 -67 -51 -124 -92 -127 -92 -8 0 -69
-44 -73 -52 -2 -5 -8 -8 -13 -8 -5 0 -28 -12 -52 -27 -100 -64 -393 -211 -575
-288 -82 -36 -109 -48 -135 -61 -16 -8 -36 -14 -45 -14 -9 0 -26 -7 -36 -15
-11 -8 -28 -15 -37 -15 -10 0 -30 -6 -46 -14 -50 -24 -97 -44 -118 -49 -11 -3
-45 -15 -75 -27 -30 -12 -66 -25 -80 -30 -14 -5 -50 -18 -80 -30 -30 -12 -66
-24 -80 -27 -14 -3 -34 -12 -45 -19 -11 -8 -29 -14 -40 -14 -12 0 -30 -7 -41
-15 -10 -8 -28 -15 -40 -15 -11 0 -29 -7 -40 -15 -10 -8 -27 -15 -36 -15 -10
0 -32 -6 -50 -14 -34 -15 -95 -38 -163 -63 -22 -8 -53 -21 -68 -29 -16 -8 -37
-14 -47 -14 -9 0 -23 -7 -30 -15 -7 -8 -17 -15 -22 -15 -9 0 -192 -135 -238
-176 -14 -12 -63 -55 -110 -95 -99 -84 -268 -253 -324 -324 -22 -28 -45 -54
-51 -60 -22 -20 -105 -134 -105 -143 0 -6 -3 -12 -7 -14 -10 -4 -44 -54 -68
-101 -12 -23 -39 -50 -66 -67 -57 -34 -118 -105 -140 -163 -18 -43 -16 -121 2
-141 14 -15 11 -66 -3 -66 -7 0 -37 36 -67 81 -30 44 -74 101 -98 127 -24 25
-43 51 -43 58 0 7 70 83 155 169 156 158 414 437 482 524 20 25 42 51 48 56
25 22 236 303 253 335 4 8 24 41 45 72 20 32 42 68 47 80 6 13 14 30 19 38 5
8 12 22 15 30 3 8 10 22 15 30 9 15 28 65 52 135 7 22 16 66 19 99 6 65 -5 56
170 148 41 22 116 62 165 89 85 46 97 52 128 64 6 3 20 9 30 15 9 5 25 14 35
19 40 22 518 259 532 265 8 3 22 10 30 15 22 14 366 177 410 195 8 3 22 10 30
15 27 16 322 151 360 165 8 3 22 10 30 14 8 5 32 16 53 26 20 9 52 22 70 30
17 8 64 29 102 46 39 17 84 37 100 44 17 8 46 20 65 29 19 8 53 23 75 32 22
10 47 22 55 27 8 4 22 11 30 14 8 3 28 12 43 20 16 7 33 14 38 14 5 0 39 14
76 31 38 16 82 36 98 43 17 7 48 21 70 30 53 24 96 43 115 50 8 4 33 17 55 30
47 28 95 33 95 11z m-530 -1029 c0 -8 -14 -25 -30 -38 -17 -13 -46 -35 -64
-50 -19 -16 -41 -28 -50 -28 -9 0 -16 -5 -16 -10 0 -12 -88 -70 -107 -70 -25
0 -13 19 33 49 25 17 47 31 50 31 8 0 115 85 139 109 23 24 45 27 45 7z
m-4682 -78 c26 -24 49 -44 51 -45 2 -2 1 -6 -2 -10 -4 -4 -13 -1 -19 5 -7 7
-19 12 -27 12 -16 0 -81 58 -81 72 0 20 34 5 78 -34z m132 -94 c12 -12 10 -14
-17 -14 -30 0 -59 21 -46 34 9 8 44 -3 63 -20z m1848 -412 c6 -59 -86 -216
-237 -402 -42 -52 -83 -101 -91 -110 -8 -9 -33 -38 -55 -65 -41 -50 -48 -59
-120 -136 -22 -24 -69 -77 -105 -119 -59 -68 -125 -142 -157 -175 -7 -7 -44
-50 -83 -96 -39 -46 -81 -95 -94 -109 -43 -49 -86 -108 -86 -118 0 -5 -7 -15
-15 -22 -8 -7 -15 -25 -15 -41 0 -36 -30 -53 -77 -44 -61 11 -70 91 -15 143
16 15 51 54 78 87 27 33 103 123 169 200 66 77 129 151 141 165 108 127 159
186 165 190 3 3 44 50 89 105 46 55 87 102 90 105 4 3 43 48 87 100 43 52 92
109 107 125 44 47 172 207 185 233 16 31 35 23 39 -16z m432 -470 c0 -9 -80
-72 -92 -72 -14 0 10 37 38 59 27 21 54 28 54 13z m1424 -1003 c12 -61 69
-160 115 -200 l46 -41 -35 -29 c-46 -38 -220 -156 -245 -165 -11 -4 -33 -17
-48 -28 l-28 -20 -52 55 c-33 36 -74 66 -114 85 -35 16 -63 34 -63 39 0 12 8
18 100 89 36 27 72 57 81 65 9 9 37 34 64 56 27 22 73 62 102 88 30 26 58 45
62 43 5 -3 11 -20 15 -37z m-3032 -18 c29 -27 66 -60 83 -73 16 -12 37 -30 46
-40 10 -9 60 -51 113 -93 53 -42 96 -78 96 -80 0 -3 -34 -22 -76 -42 -41 -20
-87 -51 -100 -67 -14 -17 -32 -39 -40 -49 -13 -16 -17 -16 -61 9 -27 14 -61
34 -78 45 -16 10 -37 22 -46 26 -46 22 -178 130 -179 146 0 9 4 17 9 17 13 0
71 59 82 84 5 12 13 28 18 36 29 52 41 81 41 104 0 41 32 33 92 -23z m-237
-306 c43 -51 140 -132 175 -148 8 -4 22 -11 30 -17 40 -26 122 -70 131 -70 6
0 24 -9 40 -21 25 -18 27 -23 18 -42 -7 -11 -16 -26 -21 -31 -5 -6 -24 -33
-42 -61 -40 -62 -237 -353 -364 -540 -53 -77 -142 -202 -199 -278 -106 -142
-167 -253 -202 -367 -29 -98 -54 -258 -49 -320 9 -99 30 -224 48 -279 24 -74
19 -84 -39 -75 -25 4 -63 13 -85 20 -21 8 -48 14 -59 14 -11 0 -45 7 -76 16
-31 8 -81 22 -111 31 -117 33 -238 84 -315 134 -16 10 -37 22 -45 26 -8 3 -49
33 -91 64 -79 60 -146 132 -193 206 -43 69 -31 119 15 60 51 -68 167 -173 219
-201 108 -56 234 -78 330 -55 25 6 65 14 90 19 58 11 131 38 149 55 7 7 17 30
22 52 48 223 117 356 314 611 39 50 124 165 190 257 66 91 173 238 238 326 65
88 128 177 141 198 14 21 32 45 41 55 22 22 13 42 -29 63 -109 56 -136 74
-200 134 -46 43 -83 89 -103 128 -55 105 -41 121 32 36z m3474 33 c0 -27 -41
-102 -83 -153 -34 -42 -155 -133 -216 -163 -92 -45 -91 -37 -3 -161 103 -146
288 -399 497 -679 199 -267 223 -302 266 -392 12 -25 26 -53 31 -62 18 -34 41
-104 63 -193 18 -74 26 -92 47 -102 95 -45 262 -79 352 -70 154 15 314 113
408 251 42 63 67 36 32 -35 -19 -38 -17 -36 -73 -102 -59 -71 -130 -129 -235
-191 -100 -60 -265 -136 -294 -136 -10 0 -32 -7 -47 -15 -16 -8 -38 -15 -48
-15 -11 0 -42 -6 -70 -14 -60 -17 -175 -43 -228 -52 -37 -6 -38 -5 -38 22 1
16 7 40 15 54 8 14 15 41 15 60 0 19 7 62 15 95 39 161 -1 412 -95 598 -20 41
-75 125 -122 188 -100 136 -197 270 -218 304 -8 13 -80 120 -159 237 -228 336
-271 401 -271 414 0 7 39 31 88 55 152 76 277 167 328 240 30 44 44 49 43 17z
m-3571 -49 c7 -58 61 -151 122 -207 37 -34 128 -93 184 -119 50 -24 51 -31 11
-68 -6 -5 -32 -38 -58 -72 -26 -34 -53 -68 -60 -75 -6 -7 -24 -31 -39 -53 -15
-22 -41 -56 -58 -75 -17 -19 -43 -53 -58 -75 -15 -22 -30 -42 -33 -45 -3 -3
-62 -81 -132 -175 -69 -93 -143 -189 -163 -213 -59 -68 -127 -162 -166 -227
-37 -62 -88 -166 -88 -179 0 -5 -6 -22 -13 -39 -8 -18 -22 -59 -32 -92 -10
-33 -23 -66 -28 -72 -24 -32 -147 -73 -217 -73 -98 0 -208 47 -329 140 -139
107 -165 140 -115 148 10 2 33 10 49 17 17 7 37 16 45 19 21 8 46 25 115 75
75 56 118 99 176 176 80 105 101 142 174 300 16 33 41 76 57 96 15 20 28 40
28 44 0 4 12 24 28 44 15 20 32 44 37 53 52 86 236 352 380 550 34 46 76 108
95 138 59 96 82 111 88 59z m3663 -1 c19 -44 31 -61 194 -286 99 -136 465
-687 465 -699 0 -16 86 -178 127 -241 48 -72 152 -182 223 -237 54 -41 167
-100 204 -107 35 -6 29 -29 -20 -75 -120 -111 -215 -170 -322 -199 -93 -25
-201 -12 -281 33 -40 22 -43 27 -66 108 -10 33 -21 69 -26 80 -36 89 -57 136
-76 170 -12 22 -27 49 -32 60 -5 11 -41 61 -80 110 -39 50 -179 234 -312 410
-133 176 -245 322 -249 325 -3 3 -28 33 -54 68 -26 35 -56 71 -65 80 -47 47
-47 47 30 86 156 79 279 212 279 301 0 12 3 25 7 28 14 15 44 6 54 -15z"/>
<path d="M2095 6058 c-40 -23 -46 -58 -18 -115 18 -39 69 -67 100 -56 84 29
81 128 -4 172 -27 14 -52 14 -78 -1z"/>
<path d="M1910 6053 c-27 -10 -50 -36 -50 -55 0 -10 11 -36 25 -58 23 -36 29
-40 68 -40 56 0 67 9 74 57 4 32 1 45 -18 66 -24 27 -71 41 -99 30z"/>
<path d="M1737 6044 c-16 -17 -5 -45 25 -60 30 -15 32 -15 45 2 11 15 11 21
-1 38 -13 21 -56 33 -69 20z"/>
<path d="M6807 6056 c-31 -14 -67 -61 -67 -89 0 -27 30 -68 59 -78 80 -31 167
118 96 165 -28 19 -49 19 -88 2z"/>
<path d="M7008 6053 c-28 -7 -61 -69 -53 -101 11 -43 24 -52 75 -52 44 0 50 3
69 36 34 58 27 95 -22 113 -29 11 -40 12 -69 4z"/>
<path d="M7180 6031 c-25 -48 0 -74 44 -46 16 11 26 27 26 41 0 20 -5 24 -30
24 -19 0 -33 -7 -40 -19z"/>
<path d="M2392 7557 c-12 -13 -24 -37 -28 -54 -5 -26 0 -37 29 -70 32 -34 40
-38 83 -37 50 1 69 16 81 62 22 89 -103 165 -165 99z"/>
<path d="M2148 7074 c-25 -13 -28 -21 -28 -62 0 -64 45 -122 94 -122 47 0 86
36 86 79 0 45 -34 97 -72 110 -39 14 -47 13 -80 -5z"/>
<path d="M1846 6593 c-25 -7 -55 -43 -56 -66 0 -23 27 -77 51 -99 11 -11 34
-18 58 -18 80 0 107 89 48 162 -14 18 -70 29 -101 21z"/>
<path d="M6468 7557 c-39 -31 -53 -78 -36 -114 29 -61 116 -67 163 -11 32 38
32 78 -1 117 -32 39 -85 42 -126 8z"/>
<path d="M6754 7076 c-35 -16 -74 -72 -74 -108 0 -34 49 -78 87 -78 61 0 123
104 93 159 -7 14 -64 45 -74 41 -1 -1 -15 -7 -32 -14z"/>
<path d="M7074 6593 c-62 -12 -91 -116 -46 -161 30 -30 91 -30 119 1 46 50 57
112 26 139 -20 18 -67 28 -99 21z"/>
<path d="M4462 9040 c-6 -11 -12 -21 -12 -22 0 -6 90 -5 90 1 0 11 -39 41 -53
41 -7 0 -18 -9 -25 -20z"/>
<path d="M4358 8952 c-30 -18 -36 -32 -15 -32 7 0 23 11 35 25 25 29 18 32
-20 7z"/>
<path d="M4590 8962 c0 -13 24 -39 43 -45 26 -10 21 18 -8 37 -27 18 -35 20
-35 8z"/>
<path d="M2737 8316 c-9 -7 -17 -19 -17 -27 0 -9 8 -6 22 9 25 24 22 37 -5 18z"/>
<path d="M7274 5845 c-18 -15 -18 -15 5 -13 14 2 26 9 29 16 5 17 -10 15 -34
-3z"/>
<path d="M1670 5846 c0 -9 40 -13 46 -5 3 5 -6 9 -20 9 -14 0 -26 -2 -26 -4z"/>
<path d="M1753 5813 c9 -2 25 -2 35 0 9 3 1 5 -18 5 -19 0 -27 -2 -17 -5z"/>
<path d="M1812 5788 c6 -16 33 -22 56 -13 15 6 15 8 -3 15 -31 13 -57 12 -53
-2z"/>
<path d="M7130 5791 c-17 -5 -21 -9 -12 -15 15 -9 72 2 72 15 0 10 -23 10 -60
0z"/>
<path d="M1927 5762 c-9 -2 -15 -8 -12 -13 8 -12 65 -12 65 0 0 11 -29 18 -53
13z"/>
<path d="M6995 5750 c-3 -5 -28 -10 -54 -10 -26 0 -56 -7 -67 -15 -12 -9 -43
-14 -84 -15 -39 0 -71 -5 -78 -12 -7 -7 -34 -18 -60 -24 l-47 -12 50 -1 c45
-1 118 10 258 39 27 5 60 16 75 24 15 8 43 19 62 24 l35 10 -42 1 c-23 1 -45
-3 -48 -9z"/>
<path d="M2005 5731 c-12 -21 148 -54 315 -65 l65 -5 -52 12 c-29 7 -58 18
-65 25 -7 7 -37 12 -69 12 -31 0 -70 7 -85 15 -32 16 -100 20 -109 6z"/>
</g>
</svg>
