<?xml version="1.0" standalone="no"?>
<!DOCTYPE svg PUBLIC "-//W3C//DTD SVG 20010904//EN"
 "http://www.w3.org/TR/2001/REC-SVG-20010904/DTD/svg10.dtd">
<svg version="1.0" xmlns="http://www.w3.org/2000/svg"
 width="300.000000pt" height="65.000000pt" viewBox="0 0 300.000000 65.000000"
 preserveAspectRatio="xMidYMid meet">
<metadata>
Created by potrace 1.10, written by Peter Selinger 2001-2011
</metadata>
<g transform="translate(0.000000,65.000000) scale(0.050000,-0.050000)"
fill="#ffffff" stroke="none">
<path d="M411 1221 c-57 -89 -117 -129 -173 -115 -21 6 -38 4 -38 -5 0 -8 -20
-13 -45 -11 -26 2 -60 -16 -81 -44 -21 -25 -45 -41 -56 -35 -11 7 -18 -119
-18 -308 l0 -320 71 -23 c40 -13 77 -37 82 -52 6 -15 18 -23 27 -18 9 5 21 -4
27 -20 17 -44 127 -37 178 10 44 42 135 55 135 20 0 -11 12 -20 27 -20 15 0
54 -20 85 -44 32 -25 46 -30 32 -12 -31 39 101 39 140 0 15 -15 32 -9 56 21
l35 43 14 -44 c17 -54 51 -57 65 -6 6 25 22 34 48 27 21 -5 38 -1 38 10 0 12
30 16 75 9 41 -6 95 -12 120 -13 31 -1 45 -13 46 -41 0 -37 2 -37 21 -5 11 19
32 35 48 35 15 0 45 22 66 49 21 27 45 43 53 35 23 -21 0 122 -27 173 -33 61
-2 69 197 49 l163 -16 -81 -87 c-45 -47 -81 -99 -81 -115 0 -15 -10 -28 -21
-28 -12 0 -8 -19 9 -44 23 -32 25 -50 9 -70 -18 -21 -15 -24 14 -13 28 11 33
7 23 -20 -9 -22 4 -49 37 -78 28 -24 46 -55 40 -69 -8 -21 58 -26 320 -26 276
0 329 5 329 29 0 17 26 49 58 73 32 24 54 54 49 68 -10 26 43 90 74 90 11 0
19 -10 19 -22 0 -14 27 -19 70 -14 39 4 70 1 70 -9 0 -18 133 -9 153 12 21 21
51 15 37 -7 -8 -13 12 -21 49 -20 33 0 89 0 123 0 34 1 89 15 122 32 61 32
128 24 106 -12 -7 -11 -2 -20 10 -20 12 0 17 -9 10 -20 -7 -11 2 -20 20 -20
18 0 27 -9 20 -20 -7 -11 2 -14 22 -7 31 12 30 16 -4 43 -32 25 -32 27 -4 18
19 -7 48 1 64 17 16 16 39 29 51 29 11 0 21 9 21 20 0 51 189 -23 217 -85 3
-8 15 -15 26 -15 11 0 13 11 4 25 -11 19 -8 20 14 3 36 -28 137 9 125 45 -5
13 4 31 18 40 36 23 156 28 156 7 0 -9 18 -23 40 -30 22 -7 36 -20 30 -29 -16
-27 53 -44 82 -20 14 13 35 17 46 10 10 -6 24 -4 30 6 6 10 34 18 61 18 28 0
45 -8 40 -17 -6 -10 3 -12 21 -5 17 6 47 -2 66 -18 61 -53 88 -48 168 29 44
42 92 76 108 76 15 0 28 9 28 21 0 11 42 -20 93 -71 57 -56 105 -87 123 -81
16 7 42 1 58 -12 15 -13 27 -15 25 -5 -8 38 3 42 80 28 52 -9 83 -7 88 8 5 12
23 3 42 -22 l32 -45 41 41 c46 46 210 43 240 -5 14 -23 24 -23 60 0 36 22 46
22 60 0 13 -20 17 -21 18 -2 0 14 16 42 35 64 67 73 76 91 73 151 -4 81 34
190 66 190 18 0 26 35 26 120 0 71 -9 120 -21 120 -12 0 -16 8 -10 18 17 27
-41 42 -66 17 -16 -16 -47 4 -113 73 -49 53 -91 89 -92 79 -1 -9 -14 10 -30
43 l-30 60 12 -56 c11 -55 10 -55 -37 -24 -37 24 -60 26 -102 10 -30 -11 -62
-16 -71 -10 -10 6 -23 1 -30 -10 -7 -11 -23 -15 -34 -7 -13 8 -16 4 -8 -9 7
-12 3 -39 -10 -60 -18 -28 -18 -54 -2 -101 35 -100 10 -73 -48 52 -66 141 -57
131 -105 116 -23 -7 -37 -24 -31 -38 6 -18 -10 -24 -53 -21 -68 5 -104 28 -64
42 36 13 31 33 -18 63 -38 24 -41 23 -30 -5 10 -27 5 -29 -25 -13 -20 11 -43
13 -50 6 -8 -8 -9 1 -2 19 13 33 -84 142 -111 125 -8 -5 -26 5 -39 21 -14 17
-51 30 -84 30 -53 0 -56 3 -27 31 43 44 47 43 -114 45 -127 2 -139 -1 -94 -22
64 -31 58 -104 -8 -86 -24 6 -50 12 -59 12 -9 0 -10 10 -2 23 9 14 5 18 -8 9
-12 -7 -17 -28 -10 -46 9 -22 5 -28 -11 -18 -12 8 -23 5 -23 -7 0 -11 -15 -21
-34 -21 -26 0 -28 -6 -11 -23 18 -18 32 -16 59 5 33 25 34 25 9 -7 -24 -30
-19 -44 37 -115 82 -103 50 -103 -55 0 -45 44 -98 79 -118 78 -25 -1 -20 -8
18 -21 30 -11 55 -33 55 -49 0 -37 -49 -36 -80 2 -14 17 -44 31 -67 31 -42 2
-42 2 -3 19 35 15 33 17 -17 19 -77 2 -59 -42 26 -64 60 -16 64 -21 36 -48
-33 -34 -155 49 -155 105 0 14 -14 39 -31 57 -18 17 -22 31 -11 31 29 0 15 86
-15 96 -13 4 -19 14 -14 22 5 8 -45 15 -111 16 -83 2 -118 -5 -112 -21 4 -13
23 -20 41 -17 18 3 33 -1 33 -10 0 -23 -106 -68 -119 -51 -22 30 -118 69 -144
59 -20 -8 -18 -11 6 -12 18 -1 38 -22 44 -47 18 -67 16 -99 -7 -85 -11 7 -20
2 -20 -11 0 -14 -17 -19 -40 -13 -22 6 -40 3 -40 -6 0 -9 -49 -13 -108 -8 -64
6 -114 1 -121 -11 -8 -12 -23 -21 -35 -21 -13 0 -11 12 5 31 29 35 -66 23
-113 -14 -14 -11 -33 -5 -49 14 -21 25 -21 30 0 25 14 -3 31 7 36 22 7 19 0
25 -20 17 -22 -9 -29 -2 -25 21 4 19 8 41 8 49 1 8 13 13 27 10 14 -3 22 10
19 30 -4 25 4 31 28 21 24 -9 30 -5 20 11 -31 50 -169 27 -200 -33 -53 -103
-98 -124 -82 -40 13 69 12 71 -59 85 -72 13 -191 -21 -191 -54 0 -8 -20 -15
-43 -15 -24 0 -60 -15 -80 -33 -21 -18 -37 -23 -37 -11 0 12 9 27 20 34 11 7
20 22 20 33 0 23 -124 2 -140 -24 -6 -9 -60 -23 -120 -30 -61 -8 -128 -23
-150 -34 -36 -17 -37 -16 -10 10 17 17 75 45 130 63 179 58 175 73 -20 70
-169 -2 -230 -19 -230 -60 0 -29 60 -21 93 12 49 49 97 39 51 -10 -44 -47
-250 -106 -312 -89 -42 11 -42 11 2 -27 33 -29 38 -44 21 -61 -34 -34 -56 -28
-41 10 10 27 5 31 -23 20 -42 -16 -97 22 -77 53 17 28 -122 -55 -219 -130 -63
-48 -77 -53 -87 -27 -7 17 -26 31 -42 31 -19 0 -26 11 -18 30 7 17 18 45 26
64 10 27 0 24 -52 -13 -60 -42 -65 -43 -61 -9 11 107 3 115 -63 60 -35 -30
-86 -52 -120 -52 -32 0 -58 -7 -58 -16 0 -18 -119 -92 -122 -75 -20 99 16 170
109 212 70 32 75 38 33 39 -40 0 -44 5 -20 20 24 16 24 19 2 20 -15 0 -53 -27
-85 -60 -59 -62 -125 -87 -77 -30 17 21 18 30 2 30 -41 0 -23 37 23 46 25 5
-56 10 -180 11 l-224 3 -50 -79z m199 19 c123 0 128 -20 115 -400 -12 -357 2
-420 88 -420 15 0 27 -9 27 -20 0 -39 -197 -23 -239 19 -36 36 -44 37 -95 10
-269 -140 -551 155 -411 430 68 133 264 200 423 145 53 -19 62 -16 73 19 27
84 -27 197 -95 197 -22 0 -33 9 -25 21 7 12 26 17 43 10 16 -6 59 -11 96 -11z
m4186 -100 c33 0 64 -16 79 -40 14 -22 17 -40 6 -40 -10 0 -25 10 -32 21 -7
12 -25 17 -39 12 -27 -10 -110 65 -109 98 0 11 9 3 21 -16 11 -20 44 -35 74
-35z m-887 -31 c24 -25 31 -77 31 -232 0 -198 0 -200 45 -185 25 8 76 20 114
27 61 10 74 23 101 101 24 69 43 92 80 97 38 5 44 1 26 -20 -12 -15 -28 -58
-36 -97 -8 -38 -24 -81 -35 -95 -15 -18 -10 -38 17 -67 25 -28 41 -84 48 -165
9 -109 15 -124 55 -129 25 -4 45 -16 45 -28 0 -31 -165 -1 -192 35 -13 17 -19
68 -13 116 14 128 -17 173 -122 173 -110 0 -133 -26 -133 -151 0 -131 -41
-174 -158 -165 -98 7 -117 41 -32 56 l60 10 5 346 6 345 -61 12 c-90 18 -72
47 29 47 53 0 100 -12 120 -31z m754 -22 c27 -24 37 -62 37 -140 0 -114 8
-123 69 -76 162 122 331 -26 331 -290 0 -207 19 -261 91 -261 27 0 49 -9 49
-20 0 -11 -40 -20 -90 -20 -145 0 -170 40 -170 270 0 212 -29 270 -133 270
-87 0 -142 -61 -83 -92 l46 -25 -55 -21 c-54 -20 -55 -25 -55 -181 0 -137 -5
-162 -39 -180 -49 -27 -221 -27 -221 -1 0 11 22 20 49 20 78 0 91 54 91 374
-1 319 -5 338 -78 349 -27 4 -53 18 -57 32 -13 39 174 33 218 -8z m-1665 -6
c47 -1 43 -30 -5 -32 -12 0 -21 -12 -18 -25 7 -34 -56 -30 -96 7 -31 28 -37
28 -68 -3 -29 -28 -41 -30 -87 -8 -32 15 -44 29 -29 34 14 5 20 19 13 30 -9
14 30 17 114 9 71 -6 150 -11 176 -12z m-1233 -44 c44 -23 -34 -116 -85 -103
-16 4 -10 -3 15 -16 50 -27 62 -69 14 -50 -18 6 -26 3 -19 -8 19 -31 -22 -23
-49 9 -13 16 -37 24 -52 18 -20 -8 -29 3 -29 31 0 24 -13 42 -30 42 -36 0 -37
19 -4 63 42 55 146 61 239 14z m547 -35 c-30 -32 -28 -39 18 -82 50 -47 66
-136 38 -209 -20 -52 -123 -94 -265 -108 -198 -19 -198 -72 0 -91 237 -22 344
-114 306 -264 -36 -146 -326 -216 -503 -122 -153 81 -141 285 20 339 18 6 17
17 -4 42 -22 28 -23 44 -4 87 20 44 19 56 -5 70 -56 31 -78 144 -45 225 36 87
125 131 266 132 53 0 119 13 146 28 59 33 79 5 32 -47z m-1072 -32 c66 -34
100 -86 100 -150 0 -49 88 -43 174 12 24 15 49 20 54 11 19 -30 -75 -99 -154
-114 l-76 -14 6 -142 c5 -126 11 -145 53 -165 62 -31 27 -49 -66 -34 -51 8
-81 26 -95 58 l-21 45 -55 -40 c-175 -130 -407 10 -291 176 37 53 193 127 267
127 79 0 104 31 82 106 -22 78 -48 93 -153 94 -62 0 -85 8 -85 30 0 41 181 41
260 0z m1420 -50 c34 -34 40 -67 40 -226 0 -212 17 -250 120 -266 143 -23 180
37 180 293 l0 219 69 0 70 0 5 -264 6 -264 65 -16 c100 -26 77 -56 -44 -56
-87 0 -114 8 -138 41 l-28 41 -68 -41 c-214 -130 -362 -5 -377 319 l-10 210
-55 6 c-89 11 -63 44 35 44 63 0 102 -12 130 -40z m822 -38 l34 -41 80 44 c45
25 89 37 98 28 17 -17 -10 -40 -113 -97 -66 -37 -63 -22 -69 -376 -2 -109 -3
-110 -67 -116 l-65 -7 0 258 c0 272 -10 305 -94 305 -46 0 -59 20 -31 49 29
29 192 -4 227 -47z m2186 -40 c28 -26 56 -73 62 -104 13 -57 103 -66 159 -15
38 34 74 20 52 -22 -21 -38 -36 -45 -146 -70 -93 -20 -81 -279 15 -322 33 -14
26 -19 -40 -25 -67 -6 -86 2 -121 46 -37 45 -46 48 -67 22 -71 -85 -275 -79
-322 8 -69 129 44 236 305 289 133 28 42 191 -106 191 -78 0 -99 7 -99 32 0
54 244 30 308 -30z m-3962 -119 c-11 -7 -24 -25 -29 -40 -6 -19 -19 -14 -48
18 l-39 44 50 -15 c46 -15 48 -13 20 20 -28 34 -27 35 18 11 26 -14 39 -31 28
-38z"/>
<path d="M279 909 c-103 -110 -71 -389 51 -447 81 -39 212 5 232 78 37 135 20
395 -27 407 -107 29 -207 14 -256 -38z"/>
<path d="M2011 916 c-81 -116 -27 -256 99 -256 102 0 150 48 150 151 0 132
-177 207 -249 105z"/>
<path d="M1972 413 c-118 -117 -42 -263 136 -263 133 0 180 36 180 140 0 148
-210 230 -316 123z"/>
<path d="M1089 670 c-84 -37 -113 -77 -105 -144 15 -136 236 -53 236 89 0 95
-20 104 -131 55z"/>
<path d="M5500 578 c-108 -44 -154 -136 -96 -194 71 -71 216 21 216 137 0 86
-22 96 -120 57z"/>
<path d="M4992 1245 c46 -31 78 -67 73 -81 -5 -15 9 -32 33 -38 23 -6 42 -23
42 -38 0 -42 -49 -13 -87 53 -27 44 -50 59 -95 59 -36 0 -55 -8 -48 -20 7 -12
20 -16 28 -11 8 5 43 -15 76 -45 122 -108 150 -127 178 -116 41 16 35 35 -32
109 -33 36 -60 72 -60 79 0 21 -129 104 -161 104 -16 0 8 -25 53 -55z"/>
<path d="M1130 1198 c-41 -40 -50 -58 -28 -58 30 0 118 79 118 106 0 26 -30
10 -90 -48z"/>
</g>
</svg>
